<?xml version="1.0" encoding="UTF-8"?>
<svg version="1.1" xmlns="http://www.w3.org/2000/svg" width="512" height="254">
<path d="M0 0 C4.72202382 3.28488613 9.03291886 7.47375658 10.875 13 C11.64995628 19.44103009 10.80851186 24.74007135 6.875 30 C3.81928467 32.86126072 1.21243417 35 -3.125 35 C2.33205007 43.83706689 7.97680429 52.19283626 14.875 60 C15.48601562 60.69480469 16.09703125 61.38960937 16.7265625 62.10546875 C20.79780264 66.4452375 25.34984737 70.03849518 30.125 73.5625 C30.72787842 74.0169751 31.33075684 74.4714502 31.9519043 74.93969727 C35.08396527 77.35310553 35.08396527 77.35310553 38.84057617 77.76342773 C41.03252191 76.94088911 42.6882817 75.94672919 44.59765625 74.59375 C45.29624756 74.10124756 45.99483887 73.60874512 46.71459961 73.10131836 C47.44815674 72.5728833 48.18171387 72.04444824 48.9375 71.5 C49.6910376 70.96189697 50.4445752 70.42379395 51.22094727 69.86938477 C62.11051866 62.50222379 62.11051866 62.50222379 70.875 53 C70.359375 52.195625 69.84375 51.39125 69.3125 50.5625 C67.46596984 45.98631657 67.39736651 42.70230327 68.875 38 C71.06493606 34.35240933 73.61638991 31.76179032 77.25 29.5625 C82.61051878 28.4138174 86.28272719 28.17324296 91.125 30.6875 C94.70667986 33.69936715 98.51999088 37.09008917 99.11328125 41.953125 C99.29345566 47.52904883 98.64658562 50.6168059 94.875 55 C91.56042093 58.14460066 89.32107461 59.25032799 84.875 60 C85.18469262 64.31270635 85.49826474 68.62512245 85.8125 72.9375 C85.89951172 74.14986328 85.98652344 75.36222656 86.07617188 76.61132812 C86.55050459 83.09387526 87.10219641 89.54604567 87.875 96 C105.73003356 96.47402744 122.16910904 94.01254844 139.45361328 89.6015625 C143.2449039 88.65966493 147.05786132 87.83031415 150.875 87 C150.49069824 86.47849365 150.10639648 85.9569873 149.71044922 85.41967773 C146.59387763 81.08553512 145.05558934 77.62137123 145.390625 72.2421875 C146.54162452 66.91417359 149.26388113 63.17172281 153.625 60 C159.29119079 58.25655668 163.83460473 57.96055335 169.1875 60.6875 C173.61830006 64.50004889 176.64090556 67.73708707 177.25 73.625 C177.15775297 78.6985869 175.29057929 82.29774139 171.875 86 C167.84327726 88.84216494 164.83419652 90 159.875 90 C159.60800293 90.71285156 159.34100586 91.42570312 159.06591797 92.16015625 C157.84268034 95.07706893 156.41237524 97.70527212 154.8203125 100.4375 C154.2106665 101.48824707 153.60102051 102.53899414 152.97290039 103.62158203 C151.9963147 105.29389893 151.9963147 105.29389893 151 107 C149.98801918 108.74139937 148.97724551 110.48349582 147.96650696 112.22561646 C147.2814179 113.40624046 146.59594026 114.58663905 145.91007996 115.76681519 C142.55786531 121.5368827 139.24362062 127.32841018 135.9375 133.125 C135.42396973 134.02476562 134.91043945 134.92453125 134.38134766 135.8515625 C133.21205999 137.90075433 132.04324085 139.95021127 130.875 142 C130.215 142 129.555 142 128.875 142 C129.57315161 138.34913542 131.10799184 135.44659827 132.8671875 132.1875 C133.4852124 131.03797852 134.1032373 129.88845703 134.73999023 128.70410156 C135.40984135 127.4693185 136.07984759 126.23461957 136.75 125 C137.42876735 123.7420241 138.10723229 122.48388499 138.78540039 121.22558594 C144.42060565 110.78351966 150.1237419 100.3785697 155.875 90 C155.25270508 90.22139648 154.63041016 90.44279297 153.98925781 90.67089844 C118.89710841 103.04651516 82.71603207 109.14894294 47.68701172 92.99072266 C24.82520278 82.03453604 6.44233333 65.32524999 -7.125 44 C-7.90101563 45.06476562 -8.67703125 46.12953125 -9.4765625 47.2265625 C-20.54355343 62.19118709 -32.37491794 74.94864035 -48.125 85 C-48.68654785 85.36319336 -49.2480957 85.72638672 -49.82666016 86.10058594 C-76.62473722 103.18271755 -108.43825561 106.11287609 -139.125 100 C-149.66589639 97.45609555 -160.02779923 93.93698195 -170.125 90 C-165.1121662 100.31394558 -159.79339689 110.45718076 -154.375 120.5625 C-154.04748749 121.17395874 -153.71997498 121.78541748 -153.38253784 122.41540527 C-149.12708472 130.38912266 -149.12708472 130.38912266 -144.609375 138.21484375 C-143.87460938 139.59349609 -143.87460938 139.59349609 -143.125 141 C-143.455 141.66 -143.785 142.32 -144.125 143 C-146.83521046 139.74665242 -149.08744377 136.52774111 -151.12109375 132.81640625 C-151.67321533 131.81625488 -152.22533691 130.81610352 -152.79418945 129.78564453 C-153.37773193 128.72200684 -153.96127441 127.65836914 -154.5625 126.5625 C-155.81395604 124.32097319 -157.06658591 122.08010139 -158.3203125 119.83984375 C-160.19709519 116.47739416 -162.0644942 113.11148168 -163.90136719 109.72705078 C-165.55604926 106.67902658 -167.24346437 103.65128037 -168.9375 100.625 C-169.42726318 99.69888916 -169.91702637 98.77277832 -170.42163086 97.81860352 C-172.99708991 93.28625663 -174.7548055 90.67884042 -179.83203125 89.046875 C-180.95121948 88.8008252 -180.95121948 88.8008252 -182.09301758 88.54980469 C-186.2750377 87.41825245 -188.3857029 83.94324113 -190.9375 80.6875 C-192.55820997 77.01957744 -193.00293654 73.88290634 -192.125 70 C-189.38160959 64.72062327 -185.88974261 60.84471764 -180.125 59 C-174.75799395 58.40366599 -171.2098786 58.75670472 -166.66796875 61.75 C-163.2969223 64.48097434 -161.39584 67.0825759 -160.78125 71.43359375 C-160.6019093 76.46260576 -160.93188421 79.91281179 -164.125 84 C-164.455 84.66 -164.785 85.32 -165.125 86 C-144.40336538 92.56043555 -124.93322143 96.22575799 -103.125 96 C-101.5435404 84.00854417 -100.62904079 72.08371462 -100.125 60 C-101.05957031 59.70480469 -101.99414062 59.40960938 -102.95703125 59.10546875 C-107.88438361 57.38605973 -110.35157956 55.31481475 -113 50.8125 C-114.37704473 46.14584842 -114.61045224 42.65332275 -113.125 38 C-110.91629196 34.32810997 -108.37379742 31.73647027 -104.6875 29.5625 C-100.08776481 28.55280203 -96.45594208 28.52086085 -92 30.125 C-88.06207682 32.69321077 -85.25387417 35.74225165 -83.125 40 C-82.8429912 45.54617297 -83.48462343 49.63797857 -85.125 55 C-78.38638775 60.86869506 -71.45356356 66.36066797 -64.1875 71.5625 C-63.4663501 72.08682617 -62.7452002 72.61115234 -62.00219727 73.15136719 C-57.02049628 76.90001773 -57.02049628 76.90001773 -51.125 78 C-48.66716581 76.5070933 -46.67713234 75.08267793 -44.5 73.25 C-43.88535889 72.74629883 -43.27071777 72.24259766 -42.63745117 71.72363281 C-30.38481907 61.52766417 -18.92707831 49.6110432 -12.125 35 C-12.846875 34.938125 -13.56875 34.87625 -14.3125 34.8125 C-19.26056444 33.38305916 -22.33586976 29.18369535 -25.125 25 C-26.71435702 20.23192894 -27.18009789 15.49545974 -25.18359375 10.7734375 C-19.39548045 1.08424471 -11.02972287 -3.52951132 0 0 Z M-93.125 59 C-93.22296875 60.13695312 -93.3209375 61.27390625 -93.421875 62.4453125 C-94.52750576 74.21439366 -96.57107295 85.00145298 -101.125 96 C-85.35257926 95.24171054 -69.58754676 90.30829115 -56.125 82 C-55.795 81.34 -55.465 80.68 -55.125 80 C-55.82882813 79.731875 -56.53265625 79.46375 -57.2578125 79.1875 C-69.01878139 74.51996143 -79.60779324 68.75653562 -89.234375 60.46875 C-90.98921872 58.79550377 -90.98921872 58.79550377 -93.125 59 Z M71.625 62.5 C62.38460793 70.03365298 51.81887443 75.35443698 40.875 80 C40.875 80.66 40.875 81.32 40.875 82 C62.38154747 92.62064836 62.38154747 92.62064836 85.875 96 C85.38580078 94.63294922 85.38580078 94.63294922 84.88671875 93.23828125 C81.03721035 81.99471136 79.25478608 70.78058948 77.875 59 C74.91659608 59 73.8481979 60.58598857 71.625 62.5 Z " fill="#141414" transform="translate(269.125,3)"/>
<path d="M0 0 C1.37382532 0.00493165 2.7476574 0.00822548 4.12149048 0.00996399 C6.98437356 0.01756411 9.84674948 0.03801031 12.70947266 0.0690918 C16.38149652 0.10888945 20.05319343 0.12674128 23.72540855 0.13640118 C27.23364993 0.14635564 30.74181164 0.16622995 34.25 0.1875 C35.25360125 0.19259362 35.25360125 0.19259362 36.27747726 0.19779015 C38.16337893 0.20934013 40.04922673 0.22886255 41.93505859 0.2487793 C43.00791107 0.2586235 44.08076355 0.26846771 45.18612671 0.27861023 C47.7265625 0.42578125 47.7265625 0.42578125 49.7265625 1.42578125 C49.80747221 3.0499687 49.86571245 4.6752987 49.9140625 6.30078125 C49.96626953 7.65816406 49.96626953 7.65816406 50.01953125 9.04296875 C49.92285156 9.82929688 49.82617188 10.615625 49.7265625 11.42578125 C46.08351386 13.85448034 43.41933911 13.682538 39.21484375 13.62109375 C38.48661911 13.61826385 37.75839447 13.61543396 37.00810242 13.61251831 C34.68492113 13.60133382 32.36212703 13.57623291 30.0390625 13.55078125 C28.4628962 13.54074919 26.88672385 13.53162373 25.31054688 13.5234375 C21.44906983 13.50140021 17.58788179 13.46688266 13.7265625 13.42578125 C14.54334473 13.79864258 15.36012695 14.17150391 16.20166016 14.55566406 C19.25630846 15.95309085 22.3087535 17.35512763 25.35986328 18.76025391 C26.67607803 19.3652803 27.99312299 19.96850422 29.31103516 20.56982422 C31.21482575 21.43885202 33.11544917 22.31450768 35.015625 23.19140625 C36.15725098 23.71508789 37.29887695 24.23876953 38.47509766 24.77832031 C44.30318429 27.7313109 48.83221624 30.41444671 51.7265625 36.42578125 C52.51506863 41.36601355 52.26432779 45.21580934 50.2265625 49.80078125 C45.08113561 55.20347949 40.26026202 56.6573038 32.97509766 56.91162109 C30.31961827 56.92444402 27.67036829 56.91630841 25.015625 56.88671875 C23.59695605 56.88433073 22.1782839 56.88342976 20.75961304 56.88394165 C17.80259089 56.88082946 14.84605907 56.86437741 11.88916016 56.83740234 C8.09598106 56.80323693 4.30333431 56.79577989 0.5100193 56.79729271 C-2.41188654 56.79674985 -5.33367566 56.78579941 -8.25554276 56.77128983 C-9.65500634 56.76492317 -11.05448313 56.76098324 -12.45396042 56.75950241 C-14.4021353 56.75517876 -16.35026079 56.73610929 -18.29833984 56.71630859 C-19.40672211 56.708685 -20.51510437 56.7010614 -21.65707397 56.69320679 C-24.2734375 56.42578125 -24.2734375 56.42578125 -26.2734375 54.42578125 C-26.50390625 52.55078125 -26.50390625 52.55078125 -26.4609375 50.42578125 C-26.45449219 49.72453125 -26.44804688 49.02328125 -26.44140625 48.30078125 C-26.2734375 46.42578125 -26.2734375 46.42578125 -25.2734375 44.42578125 C-13.3934375 44.09578125 -1.5134375 43.76578125 10.7265625 43.42578125 C0.75517112 38.70272326 0.75517112 38.70272326 -9.22729492 34.00317383 C-10.48656746 33.40139408 -11.74546321 32.79882498 -13.00390625 32.1953125 C-13.64767212 31.89701538 -14.29143799 31.59871826 -14.95471191 31.29138184 C-19.17256159 29.25257885 -22.21862252 26.97870619 -25.2734375 23.42578125 C-27.12509795 17.87079989 -27.15746241 12.4148373 -24.7734375 7.05078125 C-17.60188051 -0.47935359 -9.81034327 -0.13125404 0 0 Z " fill="#000000" transform="translate(68.2734375,143.57421875)"/>
<path d="M0 0 C1.91137695 1.32011414 1.91137695 1.32011414 3.80078125 3.0690918 C4.49461914 3.70656342 5.18845703 4.34403503 5.90332031 5.00082397 C9.15518096 8.10146061 12.3824871 11.22007553 15.5625 14.39453125 C16.23925781 15.06796066 16.91601562 15.74139008 17.61328125 16.43522644 C19.02620184 17.84312863 20.43781191 19.25234718 21.84814453 20.6628418 C24.0170651 22.82954768 26.19389907 24.98809652 28.37109375 27.14648438 C29.74788349 28.52034481 31.12420312 29.89467656 32.5 31.26953125 C33.15299072 31.91533646 33.80598145 32.56114166 34.47875977 33.22651672 C35.07358154 33.82441513 35.66840332 34.42231354 36.28125 35.03833008 C36.80783203 35.56348709 37.33441406 36.0886441 37.87695312 36.62971497 C39 38 39 38 39 40 C39.66 40 40.32 40 41 40 C41 40.66 41 41.32 41 42 C41.66 42 42.32 42 43 42 C43 42.66 43 43.32 43 44 C43.66 44 44.32 44 45 44 C45 44.66 45 45.32 45 46 C45.66 46 46.32 46 47 46 C49.1875 48.1875 49.1875 48.1875 51 51 C50.61328125 53.67578125 50.61328125 53.67578125 50 56 C19.29396199 60.62164978 19.29396199 60.62164978 8.54785156 53.30029297 C0.44875603 46.94546789 -6.31864352 38.96378028 -12.67626953 30.91088867 C-15.00219546 27.88633531 -15.00219546 27.88633531 -18 25 C-23.94 30.94 -29.88 36.88 -36 43 C-32.55240234 43.09087891 -32.55240234 43.09087891 -29.03515625 43.18359375 C-26.81775476 43.24534005 -24.60040654 43.30874554 -22.38305664 43.37231445 C-20.83785711 43.41571985 -19.29260786 43.45739071 -17.74731445 43.49731445 C-15.53060904 43.55488199 -13.3141552 43.61861424 -11.09765625 43.68359375 C-10.05545677 43.70866249 -10.05545677 43.70866249 -8.99220276 43.73423767 C-4.11387171 43.88612829 -4.11387171 43.88612829 -3 45 C-2.90176063 46.66429051 -2.87026369 48.33281931 -2.875 50 C-2.87113281 51.36125 -2.87113281 51.36125 -2.8671875 52.75 C-3 55 -3 55 -4 56 C-5.71865409 56.0935919 -7.44115744 56.11744611 -9.16235352 56.11352539 C-10.26341934 56.11344986 -11.36448517 56.11337433 -12.49891663 56.11329651 C-13.6968132 56.10813522 -14.89470978 56.10297394 -16.12890625 56.09765625 C-17.34827377 56.0962413 -18.5676413 56.09482635 -19.82395935 56.09336853 C-23.7368307 56.08774967 -27.64964581 56.07519396 -31.5625 56.0625 C-34.20768147 56.05748743 -36.85286383 56.0529241 -39.49804688 56.04882812 C-45.99871726 56.03777411 -52.49935461 56.02101764 -59 56 C-59.77778625 53.8213501 -59.77778625 53.8213501 -60 51 C-58.23551941 48.50726318 -58.23551941 48.50726318 -55.55541992 45.85839844 C-55.07110001 45.37159607 -54.58678009 44.8847937 -54.08778381 44.38323975 C-52.4826506 42.77718795 -50.85718216 41.19354125 -49.23046875 39.609375 C-48.11158549 38.4991456 -46.99395059 37.38765681 -45.8775177 36.27496338 C-42.9339538 33.34864031 -39.97237655 30.44120326 -37.00714111 27.53686523 C-34.5870738 25.16038884 -32.18006077 22.77093078 -29.77364635 20.38064194 C-26.90933419 17.53592157 -24.03957323 14.69673221 -21.16796875 11.859375 C-20.61814016 11.31597221 -20.06831158 10.77256943 -19.50182152 10.21269989 C-17.94835148 8.68017313 -16.39129099 7.15140489 -14.83276367 5.62402344 C-13.94594406 4.75308044 -13.05912445 3.88213745 -12.14543152 2.98480225 C-8.49579913 -0.39158078 -4.84014454 -1.04149779 0 0 Z " fill="#000000" transform="translate(430,144)"/>
<path d="M0 0 C2.49852576 0.79735432 4.03708305 1.69507818 5.87745667 3.57513428 C6.52794983 4.21547607 7.17844299 4.85581787 7.84864807 5.51556396 C8.50139709 6.19780029 9.15414612 6.88003662 9.82667542 7.58294678 C11.194741 8.91931847 12.56323388 10.25525287 13.93214417 11.59075928 C15.29542785 12.96056585 16.65609986 14.33297651 18.01417542 15.70794678 C18.69931213 16.39759521 19.38444885 17.08724365 20.09034729 17.79779053 C21.41442395 19.13078782 22.73723804 20.46504077 24.05860901 21.80072021 C25.552535 23.30661082 27.05752893 24.80150932 28.56495667 26.29388428 C30.73842633 28.49363078 32.78843276 30.75807625 34.82667542 33.08294678 C37.55521682 36.16758596 40.34658863 39.11537466 43.33448792 41.94622803 C43.93261292 42.51857178 44.53073792 43.09091553 45.14698792 43.68060303 C46.33516221 44.80962578 47.53552078 45.92598452 48.74855042 47.02825928 C50.39698792 48.60247803 50.39698792 48.60247803 52.82667542 51.58294678 C52.47853088 54.26922607 52.47853088 54.26922607 51.82667542 56.58294678 C46.703965 56.75699346 41.58300264 56.88347581 36.45802307 56.96746826 C34.717809 57.00250505 32.97779854 57.05015186 31.23829651 57.11102295 C14.91358707 57.66765344 14.91358707 57.66765344 9.96730042 53.41107178 C8.26612854 51.47918701 8.26612854 51.47918701 6.82667542 49.58294678 C5.91401917 48.63032959 5.00136292 47.6777124 4.06105042 46.69622803 C3.24120667 45.77197021 2.42136292 44.8477124 1.57667542 43.89544678 C-4.11100368 37.5565534 -10.10522771 31.55573323 -16.17332458 25.58294678 C-17.04215271 26.46337646 -17.91098083 27.34380615 -18.80613708 28.25091553 C-19.97006309 29.42422803 -21.13413329 30.5973975 -22.29832458 31.77044678 C-22.86809021 32.34859131 -23.43785583 32.92673584 -24.02488708 33.5223999 C-24.59207458 34.09281006 -25.15926208 34.66322021 -25.74363708 35.25091553 C-26.25684509 35.76936035 -26.7700531 36.28780518 -27.29881287 36.82196045 C-29.82820435 39.19816529 -32.49326066 41.37805983 -35.17332458 43.58294678 C-34.17889343 43.60800293 -33.18446228 43.63305908 -32.15989685 43.65887451 C-28.48283711 43.7527956 -24.80597309 43.85305296 -21.12913513 43.95526123 C-19.53543158 43.99866823 -17.94167978 44.04033896 -16.34788513 44.08026123 C-14.06168551 44.13782485 -11.77573009 44.20155827 -9.48973083 44.26654053 C-8.7730574 44.28325302 -8.05638397 44.29996552 -7.31799316 44.31718445 C-2.28719629 44.46907507 -2.28719629 44.46907507 -1.17332458 45.58294678 C-1.00535583 47.57904053 -1.00535583 47.57904053 -0.98582458 50.02044678 C-0.9716449 50.82353271 -0.95746521 51.62661865 -0.94285583 52.45404053 C-1.17332458 54.58294678 -1.17332458 54.58294678 -3.17332458 56.58294678 C-5.46388245 56.82345581 -5.46388245 56.82345581 -8.35740662 56.80999756 C-9.43837616 56.8098465 -10.5193457 56.80969543 -11.6330719 56.80953979 C-12.80393341 56.79921722 -13.97479492 56.78889465 -15.18113708 56.77825928 C-16.37689362 56.77542938 -17.57265015 56.77259949 -18.80464172 56.76968384 C-22.63596977 56.75845982 -26.4670668 56.73335109 -30.29832458 56.70794678 C-32.89076913 56.69791986 -35.48321733 56.68879351 -38.07566833 56.68060303 C-44.44163301 56.65851324 -50.8074623 56.62501384 -57.17332458 56.58294678 C-57.83332458 55.26294678 -58.49332458 53.94294678 -59.17332458 52.58294678 C-52.57560865 45.77642005 -45.95365654 38.99469186 -39.29975986 32.24307251 C-36.21058663 29.10698939 -33.13031379 25.96312098 -30.06907654 22.79974365 C-27.1127381 19.74539617 -24.13475041 16.71376834 -21.14068413 13.69641113 C-20.00408097 12.54321712 -18.87541065 11.38214689 -17.75508308 10.21313477 C-6.97445517 -1.0168197 -6.97445517 -1.0168197 0 0 Z " fill="#000000" transform="translate(177.17332458496094,143.41705322265625)"/>
<path d="M0 0 C1.68486117 -0.02650017 3.36956351 -0.06730755 5.05371094 -0.12304688 C20.83916643 -0.63932815 20.83916643 -0.63932815 25.8190918 3.68261719 C26.91034328 4.91017796 27.96966239 6.16745585 28.9831543 7.45996094 C29.88163086 8.31460938 30.78010742 9.16925781 31.70581055 10.04980469 C36.02872971 14.38715764 40.2328648 18.73993168 44.11987305 23.47558594 C45.86229252 25.33124442 47.66201047 26.93704627 49.59960938 28.58398438 C50.54892082 29.39243805 50.54892082 29.39243805 51.51741028 30.21722412 C52.0011058 30.62732727 52.48480133 31.03743042 52.9831543 31.45996094 C53.84593994 30.59193848 54.70872559 29.72391602 55.59765625 28.82958984 C58.79872868 25.61042014 62.00310715 22.39455872 65.20849609 19.1796875 C66.59546901 17.78768521 67.98154316 16.39478679 69.36669922 15.00097656 C71.35758753 12.99796174 73.35168344 10.99818951 75.34643555 8.99902344 C76.27471916 8.06299789 76.27471916 8.06299789 77.22175598 7.10806274 C77.8021312 6.527612 78.38250641 5.94716125 78.98046875 5.34912109 C79.74324883 4.5830101 79.74324883 4.5830101 80.5214386 3.80142212 C83.35345193 1.20239691 85.27309927 0.18175492 89.0456543 0.20996094 C92.9831543 0.45996094 92.9831543 0.45996094 94.9831543 2.45996094 C94.77825026 6.53686727 92.16774504 8.69969766 89.43847656 11.50390625 C88.73083412 12.2363002 88.73083412 12.2363002 88.00889587 12.98348999 C86.44764373 14.59359553 84.87486852 16.19173616 83.29956055 17.78808594 C82.76133101 18.33604576 82.22310146 18.88400558 81.66856194 19.44857025 C78.81907505 22.34885602 75.96069138 25.24002291 73.09472656 28.12402344 C70.14350013 31.09726562 67.22371626 34.09947347 64.31022739 37.10963821 C62.05779359 39.42563761 59.78318499 41.71887342 57.50208855 44.00661469 C56.41608883 45.10350286 55.33843942 46.20872722 54.26968575 47.32242584 C44.85915855 57.10140136 44.85915855 57.10140136 38.40869141 57.22851562 C32.346943 56.61430566 29.69327379 53.29300629 25.91674805 48.87695312 C21.74972039 44.10865745 17.26597321 39.70568067 12.7331543 35.28808594 C10.9734555 33.55560621 9.21435782 31.82251575 7.45581055 30.08886719 C4.70493246 27.38147343 1.95049341 24.6781438 -0.81420898 21.98486328 C-3.49727055 19.36803846 -6.16444541 16.73588604 -8.8293457 14.10058594 C-9.665625 13.29325012 -10.5019043 12.48591431 -11.36352539 11.65411377 C-12.12181641 10.8994281 -12.88010742 10.14474243 -13.66137695 9.3671875 C-14.33531494 8.70736877 -15.00925293 8.04755005 -15.70361328 7.36773682 C-17.0168457 5.45996094 -17.0168457 5.45996094 -16.7890625 3.27825928 C-14.62351777 -1.82083518 -4.91017195 0.05892396 0 0 Z " fill="#000000" transform="translate(302.016845703125,143.5400390625)"/>
<path d="M0 0 C0.70523804 0.00404846 1.41047607 0.00809692 2.13708496 0.01226807 C2.8619812 0.01035461 3.58687744 0.00844116 4.33374023 0.00646973 C5.86698758 0.0051082 7.40024646 0.00880243 8.93347168 0.01715088 C11.28415755 0.02785129 13.63407919 0.01725498 15.98474121 0.00445557 C17.47302415 0.00577717 18.96130662 0.00833957 20.44958496 0.01226807 C21.154823 0.0082196 21.86006104 0.00417114 22.58666992 0 C27.56341011 0.04796821 27.56341011 0.04796821 29.79333496 2.27789307 C30.02697866 5.03549123 30.1428162 7.70020183 30.17224121 10.46148682 C30.18923569 11.27279556 30.20623016 12.08410431 30.22373962 12.91999817 C30.27696225 15.51838352 30.31719258 18.11675314 30.35583496 20.71539307 C30.3997852 23.31037868 30.44654173 25.90524123 30.49864197 28.50007629 C30.53054713 30.11597994 30.55745339 31.73199158 30.57887268 33.34806824 C30.63808258 36.57013462 30.76745004 39.2002383 31.79333496 42.27789307 C35.45644056 43.49892827 38.88919983 43.48975031 42.70739746 43.55914307 C43.47764252 43.57755249 44.24788757 43.59596191 45.04147339 43.6149292 C48.3372002 43.69361667 51.63312697 43.76155365 54.92907715 43.83013916 C57.33445768 43.88173036 59.7396553 43.93901284 62.14489746 43.99664307 C62.89590729 44.01021851 63.64691711 44.02379395 64.42068481 44.03778076 C69.6804801 44.1650382 69.6804801 44.1650382 70.79333496 45.27789307 C70.86539007 46.96398273 70.87719564 48.65289966 70.85583496 50.34039307 C70.84681152 51.25949463 70.83778809 52.17859619 70.82849121 53.12554932 C70.81688965 53.83582275 70.80528809 54.54609619 70.79333496 55.27789307 C68.20100061 56.57406024 66.28799693 56.42628121 63.3848877 56.45489502 C61.68688271 56.47414787 61.68688271 56.47414787 59.95457458 56.49378967 C58.72445145 56.50117661 57.49432831 56.50856354 56.22692871 56.51617432 C54.96373306 56.52424606 53.70053741 56.53231781 52.39906311 56.54063416 C49.7181938 56.55448934 47.03744803 56.56550003 44.35656738 56.57305908 C40.94263902 56.58407078 37.52937202 56.61840492 34.11567593 56.65823078 C30.84032652 56.6908784 27.56491599 56.69519314 24.28942871 56.70367432 C23.07347519 56.7211824 21.85752167 56.73869049 20.60472107 56.75672913 C11.98019317 56.73486592 5.586293 55.49366184 -1.08166504 49.84039307 C-6.62629781 43.15421825 -7.36170329 37.7266273 -7.37463379 29.20367432 C-7.37796219 28.43863083 -7.38129059 27.67358734 -7.38471985 26.88536072 C-7.38976371 25.27589517 -7.39212896 23.66641925 -7.39196777 22.0569458 C-7.39416708 19.58810509 -7.41238395 17.11970246 -7.43127441 14.65093994 C-7.43420626 13.08518626 -7.43619245 11.51943046 -7.43713379 9.95367432 C-7.44431931 9.21409988 -7.45150482 8.47452545 -7.45890808 7.71253967 C-7.43064407 1.42483706 -6.33830592 0.06109163 0 0 Z " fill="#000000" transform="translate(235.2066650390625,143.72210693359375)"/>
<path d="M0 0 C3.58167986 3.01186715 7.39499088 6.40258917 7.98828125 11.265625 C8.16845566 16.84154883 7.52158562 19.9293059 3.75 24.3125 C0.43542093 27.45710066 -1.80392539 28.56282799 -6.25 29.3125 C-6.14171875 30.7665625 -6.14171875 30.7665625 -6.03125 32.25 C-5.34662052 41.95440937 -5.13359186 51.58595357 -5.25 61.3125 C-9.05092481 58.77855013 -9.36010336 56.32667209 -10.375 52.125 C-10.54386719 51.47724609 -10.71273437 50.82949219 -10.88671875 50.16210938 C-12.75303751 42.80705002 -13.40402913 35.85992727 -13.25 28.3125 C-14.64798828 29.38177734 -14.64798828 29.38177734 -16.07421875 30.47265625 C-37.69997589 46.80539591 -37.69997589 46.80539591 -43.61328125 45.984375 C-44.42345703 45.65179688 -44.42345703 45.65179688 -45.25 45.3125 C-41.38725482 39.93224778 -36.60518303 36.45588132 -31.27734375 32.5703125 C-27.41040252 29.68632278 -23.80729597 26.56637955 -20.25 23.3125 C-20.765625 22.343125 -21.28125 21.37375 -21.8125 20.375 C-23.70678016 15.86697751 -23.73588246 11.96717048 -22.25 7.3125 C-20.05653952 3.66595844 -17.50973491 1.07497113 -13.875 -1.125 C-8.51448122 -2.2736826 -4.84227281 -2.51425704 0 0 Z " fill="#111111" transform="translate(360.25,33.6875)"/>
<path d="M0 0 C2.20770805 -0.08165496 4.41630425 -0.13948488 6.625 -0.1875 C7.85476562 -0.22230469 9.08453125 -0.25710937 10.3515625 -0.29296875 C15.19631467 0.09606381 18.58609851 1.44470836 21.875 5.0625 C24.02400131 10.67378119 23.87210839 15.91452343 21.5625 21.4375 C16.90667293 26.09332707 11.45285933 27.14708358 5 27.25 C1.17021277 27.17021277 1.17021277 27.17021277 0 26 C-0.08748207 24.07332493 -0.10697334 22.14348139 -0.09765625 20.21484375 C-0.09443359 19.04501953 -0.09121094 17.87519531 -0.08789062 16.66992188 C-0.07951172 15.43822266 -0.07113281 14.20652344 -0.0625 12.9375 C-0.05798828 11.70193359 -0.05347656 10.46636719 -0.04882812 9.19335938 C-0.03699608 6.12885883 -0.02051173 3.06445279 0 0 Z M6 5 C6 10.61 6 16.22 6 22 C13.5381335 21.81616672 13.5381335 21.81616672 16.5 18.8125 C18.29967286 15.43811338 18.7060807 13.76576372 18 10 C16.06307631 6.97966263 16.06307631 6.97966263 13 5 C10.69 5 8.38 5 6 5 Z " fill="#000000" transform="translate(234,225)"/>
<path d="M0 0 C3.24044458 2.56535196 4.69560167 4.086805 6 8 C6.51236616 13.35044665 6.64741984 17.68203818 4.25 22.5625 C1.63916253 25.39090726 -0.34647068 26.71439039 -4.1484375 27.37109375 C-8.24855334 27.49337791 -11.12677395 27.39925893 -14.4375 24.8125 C-17.90080458 21.01131205 -18.84172753 18.70934265 -19.3125 13.625 C-18.88235604 8.63533005 -17.722291 4.61464781 -14 1.125 C-9.29557039 -1.52124166 -5.11023227 -1.32686733 0 0 Z M-11.375 5.375 C-13.83244866 9.34472475 -13.80971291 13.44810038 -13 18 C-11.79337115 20.3126165 -11.79337115 20.3126165 -10 22 C-6.54271642 22.75011367 -6.54271642 22.75011367 -3 22 C0.20850753 19.28510901 0.91613572 17.67091421 1.4375 13.5 C0.9421493 9.53719441 -0.15436795 6.84563205 -3 4 C-6.40932922 3.62118564 -8.37817286 3.63999481 -11.375 5.375 Z " fill="#000000" transform="translate(411,225)"/>
<path d="M0 0 C4.56138 1.90941488 6.8338521 4.5874765 9 9 C9.81798363 14.00705129 9.63634403 18.46405242 7.25 23 C5.05258361 25.92988852 4.26215499 26.72972758 1 28 C-3.20365883 28.57903708 -6.91614049 28.42411894 -10.875 26.875 C-14.14867565 23.98646266 -15.71366443 21.18870206 -16.28515625 16.8203125 C-16.47821356 11.8343977 -15.92455807 8.19186656 -13 4 C-8.68982133 0.27757296 -5.65845068 -0.72016645 0 0 Z M-8.25 6.625 C-10.41084133 9.55757038 -10.8546851 11.36712745 -11 15 C-10.12838054 18.48647782 -9.5482148 20.4517852 -7 23 C-2.40229374 23.44663852 -2.40229374 23.44663852 1.875 22 C4.19461059 17.87624784 4.41463263 13.58942508 3.25 9.125 C2.03720626 6.70996696 2.03720626 6.70996696 -1 5 C-4.27810803 4.49567569 -5.5365062 4.66525448 -8.25 6.625 Z " fill="#000000" transform="translate(161,224)"/>
<path d="M0 0 C0 1.98 0 3.96 0 6 C-0.845625 5.67 -1.69125 5.34 -2.5625 5 C-6.20989216 3.93894046 -9.22274664 3.84890987 -13 4 C-13.66 5.32 -14.32 6.64 -15 8 C-14.26394531 8.08636719 -13.52789062 8.17273438 -12.76953125 8.26171875 C-8.08528525 8.93620067 -4.72176494 9.51419667 -0.75 12.1875 C1 15 1 15 1 18.625 C-0.34408602 23.16129032 -0.34408602 23.16129032 -3 25 C-8.23344596 26.74448199 -13.87957435 26.67853621 -19.125 25 C-19.74375 24.67 -20.3625 24.34 -21 24 C-21 22.35 -21 20.7 -21 19 C-17 19 -17 19 -14 20 C-12.60560336 20.06665376 -11.20830125 20.08538199 -9.8125 20.0625 C-8.554375 20.041875 -7.29625 20.02125 -6 20 C-5.67 18.68 -5.34 17.36 -5 16 C-5.74765625 15.90203125 -6.4953125 15.8040625 -7.265625 15.703125 C-15.20818414 14.4971867 -15.20818414 14.4971867 -18.6875 12.3125 C-20.57575249 8.98557894 -20.53686673 6.75806714 -20 3 C-14.81737158 -3.79103034 -7.32431553 -2.85826948 0 0 Z " fill="#000000" transform="translate(328,226)"/>
<path d="M0 0 C1.65 0 3.3 0 5 0 C5 2.97 5 5.94 5 9 C8.63 9 12.26 9 16 9 C16 6.03 16 3.06 16 0 C17.65 0 19.3 0 21 0 C21 8.58 21 17.16 21 26 C19.68 26.33 18.36 26.66 17 27 C16 26 16 26 15.90234375 23.27734375 C15.91394531 22.17519531 15.92554688 21.07304687 15.9375 19.9375 C15.94652344 18.83277344 15.95554687 17.72804687 15.96484375 16.58984375 C15.97644531 15.73519531 15.98804688 14.88054687 16 14 C12.37 14 8.74 14 5 14 C5 18.29 5 22.58 5 27 C3.35 26.67 1.7 26.34 0 26 C0 17.42 0 8.84 0 0 Z " fill="#000000" transform="translate(350,225)"/>
<path d="M0 0 C2.06183633 -0.08150744 4.12461349 -0.1394194 6.1875 -0.1875 C7.33605469 -0.22230469 8.48460937 -0.25710937 9.66796875 -0.29296875 C13.30061651 0.0264317 15.11287418 0.82164982 18 3 C19.19631354 5.63519757 19.30164752 8.1343486 19 11 C17.23535939 13.85993478 16.00434303 15.49782849 13 17 C10.6670134 17.04022391 8.33293334 17.04320247 6 17 C6 19.97 6 22.94 6 26 C4.34385343 26.38218767 2.67542976 26.71395102 1 27 C0 26 0 26 -0.11352539 23.49975586 C-0.10828857 22.41573486 -0.10305176 21.33171387 -0.09765625 20.21484375 C-0.09443359 19.04501953 -0.09121094 17.87519531 -0.08789062 16.66992188 C-0.07951172 15.43822266 -0.07113281 14.20652344 -0.0625 12.9375 C-0.05798828 11.70193359 -0.05347656 10.46636719 -0.04882812 9.19335938 C-0.03699608 6.12885883 -0.02051173 3.06445279 0 0 Z M6 5 C6 7.31 6 9.62 6 12 C7.99954746 12.04254356 10.00041636 12.04080783 12 12 C13.28322547 10.9404123 13.28322547 10.9404123 13.125 8.5 C13.28322547 6.0595877 13.28322547 6.0595877 12 5 C10.00041636 4.95919217 7.99954746 4.95745644 6 5 Z " fill="#000000" transform="translate(438,225)"/>
<path d="M0 0 C1.65 0 3.3 0 5 0 C5.02505615 0.56509277 5.0501123 1.13018555 5.07592773 1.71240234 C5.19179956 4.26683742 5.31456537 6.8208955 5.4375 9.375 C5.47681641 10.26445312 5.51613281 11.15390625 5.55664062 12.0703125 C5.59853516 12.92109375 5.64042969 13.771875 5.68359375 14.6484375 C5.72025146 15.43395996 5.75690918 16.21948242 5.79467773 17.02880859 C5.890891 19.07523496 5.890891 19.07523496 7 21 C9.31 21 11.62 21 14 21 C15.14654482 18.70691037 15.19729117 17.20090344 15.31640625 14.6484375 C15.35830078 13.79765625 15.40019531 12.946875 15.44335938 12.0703125 C15.48267578 11.18085938 15.52199219 10.29140625 15.5625 9.375 C15.60568359 8.4778125 15.64886719 7.580625 15.69335938 6.65625 C15.79956861 4.43765717 15.90161194 2.2189512 16 0 C17.65 0 19.3 0 21 0 C21.0875127 3.22899426 21.14056146 6.45768116 21.1875 9.6875 C21.21263672 10.59951172 21.23777344 11.51152344 21.26367188 12.45117188 C21.35728419 21.03230051 21.35728419 21.03230051 18 25 C13.98141405 27.6790573 10.72358279 27.69610694 6 27 C3.12970131 25.20606332 1.50868362 24.01736724 0 21 C-0.08400529 19.40552536 -0.10727467 17.80759455 -0.09765625 16.2109375 C-0.09443359 15.26992187 -0.09121094 14.32890625 -0.08789062 13.359375 C-0.07951172 12.37453125 -0.07113281 11.3896875 -0.0625 10.375 C-0.05798828 9.38242188 -0.05347656 8.38984375 -0.04882812 7.3671875 C-0.03702145 4.9113984 -0.020554 2.45572896 0 0 Z " fill="#000000" transform="translate(191,225)"/>
<path d="M0 0 C0.86882812 0.09023437 1.73765625 0.18046875 2.6328125 0.2734375 C4.875 0.625 4.875 0.625 6.875 1.625 C6.875 3.605 6.875 5.585 6.875 7.625 C6.00875 7.295 5.1425 6.965 4.25 6.625 C0.86423609 5.62181069 -1.62138964 5.31356797 -5.125 5.625 C-8.37349977 7.34726496 -8.37349977 7.34726496 -9.125 10.625 C-9.38068525 14.14067217 -9.47144962 16.78052906 -8.125 20.0625 C-5.52208823 22.09602482 -3.36796792 22.05362946 -0.1328125 21.8984375 C2.42217301 21.55048228 4.57396468 20.77551766 6.875 19.625 C6.875 21.605 6.875 23.585 6.875 25.625 C2.3248911 27.9734433 -2.11285312 28.35740879 -7.125 27.625 C-10.9276029 25.6199912 -12.74290841 24.19813738 -15.125 20.625 C-16.68265028 14.5817854 -16.25828237 10.1352552 -13.125 4.625 C-9.21530694 -0.16752698 -5.97215176 -0.65961079 0 0 Z " fill="#000000" transform="translate(82.125,224.375)"/>
<path d="M0 0 C1.65 0 3.3 0 5 0 C5 7.26 5 14.52 5 22 C9.29 22 13.58 22 18 22 C17.67 23.65 17.34 25.3 17 27 C14.35409986 27.02684679 11.70846904 27.04676357 9.0625 27.0625 C8.30775391 27.07087891 7.55300781 27.07925781 6.77539062 27.08789062 C4.85005687 27.09652441 2.92464419 27.05224333 1 27 C0 26 0 26 -0.11352539 23.49975586 C-0.10828857 22.41573486 -0.10305176 21.33171387 -0.09765625 20.21484375 C-0.09443359 19.04501953 -0.09121094 17.87519531 -0.08789062 16.66992188 C-0.07951172 15.43822266 -0.07113281 14.20652344 -0.0625 12.9375 C-0.05798828 11.70193359 -0.05347656 10.46636719 -0.04882812 9.19335938 C-0.03699608 6.12885883 -0.02051173 3.06445279 0 0 Z " fill="#000000" transform="translate(110,225)"/>
<path d="M0 0 C0.66 0 1.32 0 2 0 C2.33 2.31 2.66 4.62 3 7 C5.97 7 8.94 7 12 7 C12 7.66 12 8.32 12 9 C9.5 10.625 9.5 10.625 7 12 C7.33 14.97 7.66 17.94 8 21 C7.2575 20.505 6.515 20.01 5.75 19.5 C2.93681812 17.68076525 2.93681812 17.68076525 -1 18 C-2.36161311 18.96113866 -3.69855198 19.95884159 -5 21 C-5.66 21 -6.32 21 -7 21 C-6.34 18.03 -5.68 15.06 -5 12 C-5.825 11.54625 -6.65 11.0925 -7.5 10.625 C-8.7375 9.820625 -8.7375 9.820625 -10 9 C-10 8.34 -10 7.68 -10 7 C-7.36 6.67 -4.72 6.34 -2 6 C-1.34 4.02 -0.68 2.04 0 0 Z " fill="#000000" transform="translate(281,225)"/>
<path d="M0 0 C1.65404359 2.48106538 3.01113442 4.8693223 4.36328125 7.515625 C4.8320166 8.42642822 5.30075195 9.33723145 5.78369141 10.27563477 C6.54045166 11.74794556 6.54045166 11.74794556 7.3125 13.25 C12.24156625 22.7942712 17.41012114 32.17383426 22.80981445 41.45996094 C25.36145398 45.89077624 27.65840472 50.02284713 29 55 C23.61253546 50.41813763 20.76212801 44.59672308 17.4375 38.4375 C12.36509377 29.18161015 7.13789314 20.06623999 1.55639648 11.10717773 C1.08661377 10.34219971 0.61683105 9.57722168 0.1328125 8.7890625 C-0.28081543 8.12600098 -0.69444336 7.46293945 -1.12060547 6.77978516 C-2 5 -2 5 -2 2 C-1.34 2 -0.68 2 0 2 C0 1.34 0 0.68 0 0 Z " fill="#3A3A3A" transform="translate(97,91)"/>
<path d="M0 0 C0.33 0 0.66 0 1 0 C1.32571206 4.79312397 0.58921725 7.42749411 -1.88671875 11.51953125 C-2.8003418 13.05383789 -2.8003418 13.05383789 -3.73242188 14.61914062 C-4.37759766 15.67294922 -5.02277344 16.72675781 -5.6875 17.8125 C-6.94216625 19.90188756 -8.19608446 21.99172452 -9.44921875 24.08203125 C-10.05169434 25.07928223 -10.65416992 26.0765332 -11.27490234 27.10400391 C-13.60768079 31.02014004 -15.82441625 34.99481825 -18 39 C-18.66 39 -19.32 39 -20 39 C-19.29354637 35.18260043 -17.59639146 32.13001664 -15.76171875 28.73046875 C-15.43967972 28.131241 -15.11764069 27.53201324 -14.7858429 26.91462708 C-13.75720453 25.00331785 -12.72234991 23.0954518 -11.6875 21.1875 C-11.00286733 19.91622444 -10.31861865 18.644742 -9.63476562 17.37304688 C-6.49170911 11.54098505 -3.30217674 5.74344994 0 0 Z " fill="#454545" transform="translate(418,106)"/>
<path d="M0 0 C3.68344007 4.70206028 6.38652017 9.89981834 9.25 15.125 C9.8171875 16.13949219 10.384375 17.15398437 10.96875 18.19921875 C11.49984375 19.16730469 12.0309375 20.13539063 12.578125 21.1328125 C13.06700195 22.01855957 13.55587891 22.90430664 14.05957031 23.81689453 C14.36991211 24.53731934 14.68025391 25.25774414 15 26 C14.67 26.66 14.34 27.32 14 28 C10.26188181 23.66797518 7.52663931 18.97212156 4.75 14 C4.06164062 12.80890625 4.06164062 12.80890625 3.359375 11.59375 C2.92625 10.8203125 2.493125 10.046875 2.046875 9.25 C1.65338867 8.55390625 1.25990234 7.8578125 0.85449219 7.140625 C-0.14590648 4.63448342 -0.15313217 2.67455272 0 0 Z " fill="#595959" transform="translate(111,118)"/>
<path d="M0 0 C1.32 0.33 2.64 0.66 4 1 C4 5.72259208 2.35101802 8.34222681 0 12.25 C-0.3815625 12.8996875 -0.763125 13.549375 -1.15625 14.21875 C-2.09643883 15.81707101 -3.04720014 17.40916453 -4 19 C-4.33 19 -4.66 19 -5 19 C-5.35570702 14.092695 -4.47295044 11.43147179 -1.9375 7.25 C-0.90267258 5.53232728 0.09153276 3.78772331 1 2 C0.67 1.34 0.34 0.68 0 0 Z " fill="#3F3F3F" transform="translate(424,91)"/>
<path d="M0 0 C0.66 0.99 1.32 1.98 2 3 C-1.3 8.94 -4.6 14.88 -8 21 C-8.66 21 -9.32 21 -10 21 C-9.36355878 18.00843299 -8.38047987 15.58061047 -6.93359375 12.890625 C-6.53076172 12.13652344 -6.12792969 11.38242188 -5.71289062 10.60546875 C-5.29201172 9.82816406 -4.87113281 9.05085937 -4.4375 8.25 C-4.01275391 7.45722656 -3.58800781 6.66445312 -3.15039062 5.84765625 C-2.10417583 3.89628933 -1.05394047 1.94720186 0 0 Z " fill="#818181" transform="translate(408,124)"/>
<path d="M0 0 C0 2 0 4 0 6 C-1.134375 6.28875 -2.26875 6.5775 -3.4375 6.875 C-4.613125 7.24625 -5.78875 7.6175 -7 8 C-7.33 8.66 -7.66 9.32 -8 10 C-8.99 9.01 -9.98 8.02 -11 7 C-10.37351562 6.66226563 -9.74703125 6.32453125 -9.1015625 5.9765625 C-8.28429687 5.53054687 -7.46703125 5.08453125 -6.625 4.625 C-5.40683594 3.96371094 -5.40683594 3.96371094 -4.1640625 3.2890625 C-1.89185698 2.0556107 -1.89185698 2.0556107 0 0 Z " fill="#434343" transform="translate(317,75)"/>
<path d="M0 0 C0.33 0 0.66 0 1 0 C1.06058594 0.61488281 1.12117187 1.22976562 1.18359375 1.86328125 C1.26738281 2.67152344 1.35117188 3.47976562 1.4375 4.3125 C1.51871094 5.11300781 1.59992188 5.91351563 1.68359375 6.73828125 C1.95265693 9.16087179 1.95265693 9.16087179 3 12 C2.34 12.66 1.68 13.32 1 14 C0.34 14 -0.32 14 -1 14 C-0.67 9.38 -0.34 4.76 0 0 Z " fill="#5B5B5B" transform="translate(168,82)"/>
<path d="M0 0 C0.75 1.6875 0.75 1.6875 1 4 C-0.9375 6.75 -0.9375 6.75 -3 9 C-3.36923077 3.46153846 -3.36923077 3.46153846 -1.5 1.125 C-1.005 0.75375 -0.51 0.3825 0 0 Z " fill="#303030" transform="translate(422,101)"/>
<path d="M0 0 C0.33 0 0.66 0 1 0 C2.125 7.75 2.125 7.75 1 10 C-0.32 9.67 -1.64 9.34 -3 9 C-2.34 8.67 -1.68 8.34 -1 8 C-1.20625 7.4225 -1.4125 6.845 -1.625 6.25 C-2.08661261 3.48032433 -1.42944945 2.35438733 0 0 Z " fill="#636363" transform="translate(355,90)"/>
<path d="M0 0 C3.0916909 2.52956528 3.90931332 5.22454612 5 9 C0.125 4.375 0.125 4.375 -1 1 C-0.67 0.67 -0.34 0.34 0 0 Z " fill="#B2B2B2" transform="translate(121,137)"/>
<path d="M0 0 C0.66 0 1.32 0 2 0 C3.42944945 2.35438733 4.08661261 3.48032433 3.625 6.25 C3.41875 6.8275 3.2125 7.405 3 8 C0 3.375 0 3.375 0 0 Z " fill="#323232" transform="translate(107,113)"/>
<path d="M0 0 C0.66 0.33 1.32 0.66 2 1 C-0.31 3.31 -2.62 5.62 -5 8 C-5 5 -5 5 -2.5 2.3125 C-1.675 1.549375 -0.85 0.78625 0 0 Z " fill="#4A4A4A" transform="translate(423,63)"/>
</svg>
